<?xml version="1.0" standalone="no"?>
<!DOCTYPE svg PUBLIC "-//W3C//DTD SVG 20010904//EN"
 "http://www.w3.org/TR/2001/REC-SVG-20010904/DTD/svg10.dtd">
<svg version="1.0" xmlns="http://www.w3.org/2000/svg"
 width="1024.000000pt" height="1024.000000pt" viewBox="0 0 1024.000000 1024.000000"
 preserveAspectRatio="xMidYMid meet">
<metadata>
Created by potrace 1.11, written by Peter Selinger 2001-2013
</metadata>
<g transform="translate(0.000000,1024.000000) scale(0.100000,-0.100000)"
fill="#000000" stroke="none">
<path d="M9133 10065 c-17 -7 -116 -67 -220 -133 -232 -147 -379 -232 -693
-402 -485 -262 -752 -449 -857 -602 -28 -41 -108 -183 -176 -315 -139 -268
-190 -352 -195 -316 -4 29 40 154 106 298 56 124 102 238 102 256 0 27 -131
-82 -450 -377 -264 -243 -431 -392 -655 -584 -407 -350 -746 -692 -1335 -1345
-649 -720 -809 -923 -1110 -1410 -51 -82 -168 -271 -260 -420 -239 -386 -348
-585 -675 -1234 l-290 -576 -50 -13 c-41 -10 -504 -31 -702 -32 l-43 0 0 -233
0 -234 116 -11 c127 -12 176 -31 153 -59 -24 -28 -96 -72 -258 -158 -305 -161
-413 -256 -457 -402 -42 -139 -121 -743 -154 -1183 -23 -298 -2 -325 285 -364
231 -32 430 -40 960 -40 815 1 1382 37 1578 101 70 23 77 28 77 52 0 14 -7
150 -15 301 -32 568 -97 1024 -166 1168 -63 129 -274 308 -441 372 -189 73
-238 103 -238 147 0 36 41 55 146 66 l94 10 0 232 0 233 -62 6 c-35 3 -133 11
-218 17 -85 6 -157 13 -158 14 -11 10 490 244 643 300 508 189 1015 439 1294
640 113 81 455 355 544 437 113 102 103 115 -90 117 -57 0 -103 5 -103 10 0
13 109 57 175 71 121 24 147 34 213 80 115 81 281 266 778 860 972 1164 1204
1464 1166 1502 -26 26 -647 -173 -997 -320 -181 -76 -236 -80 -159 -13 74 66
282 154 792 335 420 150 445 161 513 223 88 82 163 203 402 648 118 220 298
556 400 746 102 190 260 495 351 678 92 182 200 393 242 468 152 274 188 359
164 388 -15 18 -26 18 -67 0z"/>
</g>
</svg>
